<!-- Generator: Adobe Illustrator 25.2.1, SVG Export Plug-In  -->
<svg version="1.1" xmlns="http://www.w3.org/2000/svg" xmlns:xlink="http://www.w3.org/1999/xlink" x="0px" y="0px" width="57.23px"
	 height="227.5px" viewBox="0 0 57.23 227.5" style="overflow:visible;enable-background:new 0 0 57.23 227.5;"
	 xml:space="preserve">
<style type="text/css">
	.st0{fill:#FFFFFF;}
</style>
<defs>
</defs>
<g>
	<path class="st0" d="M57.23,135.77v-1.46h-3.88v-2.03h3.3v-1.46h-3.3v-1.96h3.88v-1.46h-5.51v8.36H57.23z M50.38,128.86v-1.46h-6
		v1.46h2.18v6.91h1.63v-6.91H50.38z M43.09,132.91v-5.5h-1.62v5.44c0,0.96-0.58,1.54-1.46,1.54c-0.88,0-1.44-0.58-1.44-1.54v-5.44
		h-1.63v5.5c0,1.77,1.36,2.94,3.08,2.94C41.73,135.84,43.09,134.68,43.09,132.91 M35.65,128.86v-1.46h-6v1.46h2.18v6.91h1.63v-6.91
		H35.65z M28.31,127.41h-1.63v8.36h1.63V127.41z M25.33,128.86v-1.46h-6v1.46h2.18v6.91h1.63v-6.91H25.33z M18.29,133.31
		c0-0.74-0.2-1.35-0.65-1.77c-0.35-0.33-0.83-0.54-1.6-0.65l-0.99-0.14c-0.34-0.05-0.61-0.18-0.78-0.33
		c-0.18-0.16-0.25-0.39-0.25-0.6c0-0.57,0.42-1.06,1.29-1.06c0.55,0,1.19,0.07,1.72,0.58l1.03-1.02c-0.72-0.69-1.55-0.97-2.7-0.97
		c-1.81,0-2.91,1.04-2.91,2.54c0,0.71,0.2,1.25,0.6,1.65c0.38,0.36,0.9,0.59,1.62,0.69l1.01,0.14c0.39,0.06,0.58,0.14,0.74,0.29
		c0.18,0.16,0.26,0.41,0.26,0.71c0,0.67-0.52,1.03-1.48,1.03c-0.78,0-1.49-0.18-2.02-0.71l-1.06,1.06c0.82,0.83,1.78,1.1,3.05,1.1
		C16.94,135.84,18.29,134.93,18.29,133.31 M10.85,135.77v-8.36H9.22v5.12l-3.31-5.12H4.45v8.36h1.63v-5.13l3.31,5.13H10.85z
		 M2.57,127.41H0.94v8.36h1.63V127.41z"/>
	<path class="st0" d="M42.4,122.03c0-0.74-0.2-1.35-0.65-1.78c-0.35-0.33-0.83-0.54-1.6-0.65l-0.99-0.14
		c-0.34-0.05-0.61-0.18-0.78-0.33c-0.18-0.16-0.25-0.39-0.25-0.6c0-0.58,0.42-1.06,1.29-1.06c0.55,0,1.19,0.07,1.72,0.58l1.03-1.02
		c-0.72-0.69-1.55-0.97-2.7-0.97c-1.81,0-2.91,1.04-2.91,2.54c0,0.71,0.2,1.24,0.6,1.64c0.38,0.36,0.9,0.59,1.62,0.69l1.01,0.14
		c0.39,0.06,0.58,0.14,0.74,0.29c0.18,0.16,0.26,0.41,0.26,0.71c0,0.67-0.52,1.03-1.48,1.03c-0.78,0-1.49-0.18-2.02-0.71l-1.06,1.06
		c0.82,0.83,1.78,1.1,3.05,1.1C41.05,124.57,42.4,123.65,42.4,122.03 M33.59,122.01c0,0.56-0.35,1.03-1.09,1.03h-1.7v-2.06h1.7
		C33.23,120.98,33.59,121.44,33.59,122.01 M33.47,118.55c0,0.58-0.39,0.96-1.08,0.96h-1.6v-1.93h1.6
		C33.08,117.59,33.47,117.98,33.47,118.55 M35.22,122.09c0-1.12-0.65-1.64-1.15-1.88c0.42-0.2,1.03-0.8,1.03-1.73
		c0-1.43-0.95-2.35-2.58-2.35h-3.36v8.36h3.5C34.15,124.49,35.22,123.65,35.22,122.09 M25.88,120.31c0,1.61-0.09,2-0.41,2.35
		c-0.24,0.27-0.6,0.45-1.05,0.45c-0.45,0-0.82-0.18-1.06-0.45c-0.32-0.35-0.4-0.74-0.4-2.35c0-1.61,0.08-2,0.4-2.35
		c0.23-0.27,0.61-0.45,1.06-0.45c0.45,0,0.81,0.18,1.05,0.45C25.78,118.32,25.88,118.7,25.88,120.31 M27.51,120.31
		c0-1.44,0.01-2.49-0.83-3.34c-0.59-0.59-1.3-0.92-2.26-0.92c-0.95,0-1.68,0.33-2.27,0.92c-0.84,0.85-0.82,1.89-0.82,3.34
		s-0.02,2.49,0.82,3.34c0.59,0.59,1.32,0.92,2.27,0.92c0.95,0,1.67-0.33,2.26-0.92C27.52,122.8,27.51,121.76,27.51,120.31
		 M20.09,121.92h-1.66c-0.16,0.67-0.59,1.19-1.41,1.19c-0.45,0-0.81-0.17-1.05-0.44c-0.32-0.35-0.41-0.75-0.41-2.36
		c0-1.61,0.09-2.01,0.41-2.36c0.24-0.27,0.6-0.43,1.05-0.43c0.82,0,1.25,0.52,1.41,1.19h1.66c-0.29-1.75-1.52-2.64-3.08-2.64
		c-0.92,0-1.67,0.33-2.25,0.92c-0.85,0.85-0.82,1.89-0.82,3.34s-0.02,2.49,0.82,3.34c0.59,0.59,1.34,0.92,2.25,0.92
		C18.56,124.57,19.8,123.67,20.09,121.92 M10.63,121.64H8.55l1.06-3.04L10.63,121.64z M13.26,124.49l-3.05-8.36H8.93l-3.04,8.36h1.7
		l0.51-1.48h2.97l0.49,1.48H13.26z M5.1,121.75v-5.62H3.46v5.54c0,0.96-0.52,1.43-1.32,1.43c-0.54,0-0.8-0.2-1.07-0.47L0,123.71
		c0.62,0.62,1.25,0.86,2.15,0.86C3.7,124.57,5.1,123.59,5.1,121.75"/>
	<g>
		<rect x="0.84" y="102.99" class="st0" width="40.59" height="0.47"/>
	</g>
	<path class="st0" d="M43.22,112.78v-0.32h-2.49v-1.89h2.12v-0.31h-2.12v-1.85h2.49v-0.32h-2.84v4.68H43.22z M38.8,112.78v-4.68
		h-0.35v2.16h-2.44v-2.16h-0.35v4.68h0.35v-2.2h2.44v2.2H38.8z M34.46,108.41v-0.32h-3.15v0.32h1.39v4.37h0.35v-4.37H34.46z
		 M29.21,108.41v-0.32h-2.84v4.68h0.35v-2.12h2.12v-0.32h-2.12v-1.93H29.21z M24.59,110.43c0,1.01-0.03,1.37-0.36,1.7
		c-0.24,0.24-0.55,0.36-0.89,0.36c-0.34,0-0.65-0.12-0.89-0.36c-0.33-0.34-0.36-0.7-0.36-1.7c0-1.01,0.03-1.37,0.36-1.7
		c0.24-0.24,0.55-0.36,0.89-0.36c0.34,0,0.65,0.12,0.89,0.36C24.56,109.07,24.59,109.43,24.59,110.43 M24.94,110.43
		c0-1.06-0.01-1.47-0.43-1.9c-0.31-0.31-0.73-0.48-1.17-0.48c-0.44,0-0.86,0.17-1.17,0.48c-0.43,0.43-0.43,0.84-0.43,1.9
		c0,1.06,0.01,1.47,0.43,1.9c0.31,0.31,0.73,0.48,1.17,0.48c0.44,0,0.86-0.17,1.17-0.48C24.94,111.91,24.94,111.49,24.94,110.43
		 M19.15,112.78v-0.32h-2.49v-1.89h2.12v-0.31h-2.12v-1.85h2.49v-0.32h-2.84v4.68H19.15z M14.73,112.78v-4.68h-0.35l-1.59,3.61
		l-1.63-3.61H10.8v4.68h0.35v-3.86l1.45,3.2h0.35l1.42-3.2v3.86H14.73z M9.02,110.43c0,1.01-0.03,1.37-0.36,1.7
		c-0.24,0.24-0.55,0.36-0.89,0.36c-0.33,0-0.65-0.12-0.89-0.36c-0.34-0.34-0.36-0.7-0.36-1.7c0-1.01,0.03-1.37,0.36-1.7
		c0.24-0.24,0.55-0.36,0.89-0.36c0.34,0,0.65,0.12,0.89,0.36C8.99,109.07,9.02,109.43,9.02,110.43 M9.37,110.43
		c0-1.06-0.01-1.47-0.43-1.9c-0.31-0.31-0.73-0.48-1.17-0.48c-0.44,0-0.86,0.17-1.17,0.48c-0.43,0.43-0.43,0.84-0.43,1.9
		c0,1.06,0.01,1.47,0.43,1.9c0.31,0.31,0.73,0.48,1.17,0.48c0.44,0,0.86-0.17,1.17-0.48C9.37,111.91,9.37,111.49,9.37,110.43
		 M4.74,112.78v-4.68H4.38v2.16H1.94v-2.16H1.59v4.68h0.35v-2.2h2.44v2.2H4.74z"/>
	<path class="st0" d="M39.67,164.52v-5.6h0.98c0.09,0.78,0.15,1.57,0.15,2.37c0,1.1-0.09,2.18-0.27,3.23H39.67z M38.63,170.17
		l-0.93-0.46l-2.1-0.34l-0.01,0.02l2.65,1.5c-0.21,0.37-0.44,0.73-0.68,1.08l-3.45-2.41c0.73-1.11,1.33-2.32,1.75-3.61l4.21,0.62
		C39.7,167.83,39.22,169.03,38.63,170.17 M34.85,175.19l-2.9-3.06c0.21-0.2,0.41-0.4,0.6-0.61l3.2,2.75
		C35.46,174.59,35.16,174.89,34.85,175.19 M7.39,165.94c0.41,1.26,0.98,2.44,1.69,3.53l-3.54,2.47c-0.23-0.35-0.46-0.71-0.67-1.08
		l2.57-1.46l-0.02-0.02l-2.1,0.34l-0.85,0.42c-0.59-1.13-1.07-2.32-1.42-3.57L7.39,165.94z M2.33,161.29c0-0.8,0.05-1.59,0.14-2.37
		h0.97v5.6H2.6C2.42,163.47,2.33,162.39,2.33,161.29 M5.42,164.52H4.26v-5.6h1.16V164.52z M21.89,176.27
		c0.28-0.01,0.57-0.02,0.85-0.04l0.43,4.23c-0.42,0.03-0.85,0.05-1.28,0.06V176.27z M20.22,176.21c0.28,0.03,0.56,0.04,0.84,0.06
		v4.25c-0.43-0.01-0.85-0.03-1.28-0.07L20.22,176.21z M6.02,172.61l3.53-2.46c0.16,0.23,0.34,0.44,0.51,0.66l-3.26,2.81
		C6.53,173.29,6.27,172.96,6.02,172.61 M7.34,174.24l3.26-2.8c0.19,0.21,0.39,0.4,0.59,0.6l-2.96,3.12
		C7.92,174.86,7.63,174.55,7.34,174.24 M18.27,177.22l-1.11,1.81l-0.23,0.93c-2.36-0.58-4.54-1.6-6.46-2.96l0.5-0.73l0.65-2.02
		l-0.01-0.02l-1.79,2.28c-0.33-0.26-0.66-0.53-0.98-0.81l2.96-3.12c2.1,1.83,4.72,3.09,7.61,3.51l-0.43,4.24
		c-0.42-0.06-0.84-0.13-1.25-0.21l0.57-2.92L18.27,177.22z M32.06,176.26l0.54,0.79c-1.95,1.37-4.16,2.38-6.55,2.95l-0.26-0.96
		l-1.11-1.81l-0.02,0l0.59,2.95c-0.42,0.08-0.84,0.15-1.26,0.21l-0.43-4.23c2.95-0.38,5.63-1.62,7.78-3.46l2.91,3.06
		c-0.32,0.28-0.65,0.55-0.98,0.81l-1.83-2.34l-0.01,0.02L32.06,176.26z M36.29,173.65l-3.19-2.75c0.18-0.22,0.36-0.44,0.53-0.67
		l3.46,2.41C36.83,172.99,36.57,173.33,36.29,173.65 M30.61,165.18l4.38,0.65c-1.88,5.58-7.16,9.6-13.37,9.6
		c-6.22,0-11.5-4.02-13.38-9.61l4.3-0.64l0.3-0.66h-6.6v-5.6h8.98l-0.31-0.68h-4.05c1.44-4.52,5.68-7.8,10.68-7.8
		c5,0,9.24,3.28,10.68,7.8h-3.53l-0.31,0.68h8.5v5.6h-6.56L30.61,165.18z M38.85,164.52h-1.16v-5.6h1.16V164.52z M21.56,142.06
		c9.58,0,17.53,7.01,18.99,16.18h-7.46c-1.47-4.99-6.09-8.64-11.56-8.64c-5.47,0-10.09,3.65-11.56,8.64H2.57
		C4.04,149.07,11.98,142.06,21.56,142.06 M21.56,141.05c-11.18,0-20.24,9.06-20.24,20.24c0,11.18,9.06,20.24,20.24,20.24
		s20.24-9.06,20.24-20.24C41.81,150.11,32.74,141.05,21.56,141.05"/>
	<path class="st0" d="M9.29,155.3L6,153.7l0.43-0.88c0.03-0.07,0-0.14-0.06-0.17l-0.67-0.33c-0.06-0.03-0.14-0.01-0.17,0.06
		l-1.33,2.74c-0.03,0.07,0,0.14,0.06,0.17l0.67,0.33c0.06,0.03,0.14,0.01,0.17-0.06l0.43-0.88l3.29,1.6c0.06,0.03,0.14,0,0.17-0.06
		l0.36-0.74C9.38,155.41,9.35,155.33,9.29,155.3"/>
	<path class="st0" d="M10.17,153.75c0.05,0.04,0.13,0.04,0.18-0.01l1.86-2.15c0.05-0.06,0.04-0.14-0.01-0.18l-0.57-0.49
		c-0.05-0.04-0.13-0.04-0.18,0.01l-1.24,1.44l-0.7-0.6l1.02-1.18c0.05-0.05,0.04-0.13-0.01-0.18l-0.57-0.49
		c-0.05-0.04-0.14-0.04-0.18,0.01l-1.02,1.18l-0.64-0.56l1.24-1.44c0.05-0.06,0.04-0.14-0.01-0.18l-0.57-0.49
		c-0.05-0.04-0.13-0.04-0.18,0.01l-1.86,2.15c-0.05,0.06-0.04,0.14,0.01,0.18L10.17,153.75z"/>
	<path class="st0" d="M14.77,149.89c0.52-0.32,0.91-0.81,1.06-1.44c0.02-0.07-0.03-0.15-0.09-0.16l-0.75-0.2
		c-0.06-0.02-0.14,0.03-0.15,0.09c-0.1,0.31-0.33,0.59-0.61,0.76c-0.66,0.41-1.48,0.18-1.88-0.47c-0.41-0.65-0.26-1.5,0.4-1.91
		c0.29-0.18,0.64-0.25,0.97-0.19c0.07,0.02,0.13-0.02,0.14-0.09l0.16-0.75c0.02-0.08-0.03-0.15-0.11-0.16
		c-0.62-0.11-1.16-0.03-1.75,0.33c-1.16,0.72-1.52,2.24-0.8,3.41C12.09,150.27,13.6,150.61,14.77,149.89"/>
	<path class="st0" d="M16.92,148.67l0.8-0.16c0.07-0.01,0.11-0.09,0.1-0.15l-0.36-1.77l1.92-0.39l0.36,1.77
		c0.01,0.07,0.08,0.12,0.15,0.1l0.8-0.16c0.07-0.01,0.11-0.09,0.1-0.15l-0.91-4.45c-0.01-0.07-0.09-0.11-0.15-0.1l-0.8,0.16
		c-0.07,0.02-0.11,0.09-0.1,0.15l0.34,1.69l-1.92,0.39l-0.34-1.69c-0.01-0.07-0.08-0.12-0.15-0.1l-0.8,0.16
		c-0.07,0.01-0.12,0.09-0.1,0.15l0.91,4.44C16.78,148.63,16.85,148.68,16.92,148.67"/>
	<path class="st0" d="M21.98,147.88l0.8,0.14c0.08,0.01,0.14-0.04,0.15-0.11l0.44-2.52l0.01,0l2.19,3.15
		c0.01,0.02,0.06,0.05,0.08,0.05l0.11,0.02c0.07,0.01,0.14-0.03,0.15-0.1l0.8-4.54c0.01-0.07-0.04-0.14-0.11-0.15l-0.81-0.14
		c-0.07-0.01-0.14,0.04-0.15,0.11l-0.42,2.4l-0.01,0l-2.24-3.07l-0.17-0.03c-0.07-0.01-0.14,0.03-0.15,0.1l-0.8,4.54
		C21.86,147.8,21.91,147.87,21.98,147.88"/>
	<path class="st0" d="M27.02,149.18l0.74,0.36c0.06,0.03,0.14,0,0.17-0.06l1.97-4.09c0.03-0.06,0-0.14-0.06-0.17l-0.74-0.36
		c-0.06-0.03-0.14,0-0.17,0.06L26.96,149C26.93,149.06,26.96,149.15,27.02,149.18"/>
	<path class="st0" d="M31.07,148.73c0.5-0.57,1.37-0.62,1.93-0.13c0.57,0.5,0.62,1.38,0.12,1.94c-0.49,0.56-1.37,0.61-1.93,0.12
		C30.63,150.16,30.57,149.29,31.07,148.73 M30.46,151.48c1.03,0.91,2.57,0.82,3.48-0.21c0.91-1.03,0.82-2.58-0.21-3.49
		c-1.03-0.91-2.57-0.8-3.48,0.23C29.34,149.03,29.44,150.57,30.46,151.48"/>
	<path class="st0" d="M32.78,153.77l0.38,0.72c0.03,0.07,0.12,0.09,0.18,0.06l2.27-1.18l0,0.01l-1.16,3.66
		c-0.01,0.02,0,0.08,0.01,0.1l0.05,0.1c0.03,0.06,0.11,0.09,0.17,0.06l4.09-2.13c0.06-0.03,0.09-0.12,0.06-0.18l-0.38-0.73
		c-0.03-0.07-0.12-0.09-0.18-0.06l-2.16,1.12l0-0.01l1.07-3.64l-0.08-0.15c-0.03-0.06-0.11-0.09-0.17-0.06l-4.09,2.14
		C32.78,153.62,32.75,153.71,32.78,153.77"/>
	<path class="st0" d="M16.22,154.58c0.5-0.93,1.43-1.13,2.12-1.13c0.44,0,1.08,0.15,1.83,0.33c0.8,0.19,1.63,0.39,2.28,0.39
		c0.85,0,2.02-0.24,2.73-0.43c-0.04,0.07-0.19,0.14-0.29,0.29c-0.04,0.06-0.03,0.1-0.07,0.19l-0.04,0.08c0,0.01-0.04,0.03-0.11,0.06
		l-0.06,0.03c-0.16,0.08-0.36,0.18-0.52,0.4c-0.07,0.1-0.11,0.2-0.15,0.3l-0.05,0.12c-0.05,0.09-0.07,0.1-0.16,0.16
		c-0.16,0.09-0.56,0.16-0.97,0.16h-0.03c-0.33,0-0.88-0.12-1.27-0.26c-0.23-0.08-0.42-0.16-0.62-0.25l-0.07-0.02
		c-0.56-0.24-1.05-0.45-1.93-0.48h0c-0.5,0-0.98,0.35-1.2,0.86l-1.64,0C16.04,155.06,16.12,154.77,16.22,154.58 M18.47,156.04
		c0,0-0.24-0.46-0.22-0.5c0.08-0.24,0.37-0.35,0.61-0.35c0.73,0.03,1.12,0.19,1.71,0.43l0.13,0.06c0.17,0.07,0.36,0.15,0.57,0.23
		c0.46,0.17,1.07,0.29,1.47,0.29h0.03c0.19,0,0.86-0.01,1.24-0.23c0.18-0.1,0.29-0.2,0.43-0.45c0.01-0.02,0.02-0.04,0.03-0.07
		l0.03-0.07l0.01-0.02c0.02-0.06,0.05-0.12,0.07-0.16c0.07-0.1,0.16-0.14,0.34-0.23c0.06-0.02,0.21-0.1,0.31-0.21
		c0.04-0.05,0.08-0.09,0.12-0.18l0.05-0.13c0.03-0.07,0.05-0.11,0.08-0.21c0.05-0.15,0.11-0.2,0.19-0.24
		c0.12-0.07,0.24-0.19,0.35-0.32c0.08-0.11,0.14-0.25,0.19-0.45l0-0.02c0,0,0.12-0.3,0.04-0.43c-0.08-0.13-0.43,0.06-0.43,0.06
		l-0.05,0.03c-0.04,0.02-0.08,0.04-0.12,0.06c-0.54,0.25-1.98,0.61-3.18,0.61c-0.58,0-1.35-0.18-2.16-0.38l-0.04-0.01
		c-0.72-0.17-1.39-0.33-1.93-0.33c-0.68,0-1.93,0.19-2.61,1.45c-0.23,0.43-0.3,0.99-0.32,1.31l0.27,0.48L18.47,156.04z"/>
	<path class="st0" d="M9.4,159.89H8.82L7.9,160.5c-0.02,0.02-0.04,0.06-0.04,0.08v0.34c0,0.05,0.05,0.1,0.11,0.1h0.61v2.41
		c0,0.05,0.05,0.1,0.12,0.1h0.7c0.06,0,0.11-0.05,0.11-0.1v-3.45C9.51,159.94,9.46,159.89,9.4,159.89"/>
	<path class="st0" d="M11.97,161.58c-0.34,0-0.61-0.24-0.61-0.52c0-0.28,0.27-0.51,0.61-0.51c0.33,0,0.6,0.24,0.6,0.51
		C12.57,161.34,12.3,161.58,11.97,161.58 M10.92,161.24v-0.05c0,0.01,0,0.01,0,0.02C10.92,161.22,10.92,161.23,10.92,161.24
		 M11.96,159.8c-0.79,0-1.44,0.55-1.44,1.23c0,0.79,0.66,1.17,1.26,1.17c0.17,0,0.44-0.05,0.6-0.11c-0.13,0.55-0.97,0.8-1.27,0.88
		c-0.13,0.03-0.15,0.09-0.12,0.15l0.18,0.41c0.03,0.07,0.1,0.11,0.2,0.09c0.58-0.14,2.12-0.78,2.12-2.36
		C13.48,160.43,12.93,159.8,11.96,159.8"/>
	<path class="st0" d="M31.75,159.89h-0.58l-0.92,0.61c-0.02,0.02-0.04,0.06-0.04,0.08v0.34c0,0.05,0.05,0.1,0.11,0.1h0.61v2.41
		c0,0.05,0.05,0.1,0.12,0.1h0.7c0.06,0,0.11-0.05,0.11-0.1v-3.45C31.86,159.94,31.81,159.89,31.75,159.89"/>
	<path class="st0" d="M35.46,160.92c0-0.6-0.53-1.08-1.43-1.08c-0.75,0-1.26,0.53-1.26,0.53c-0.04,0.04-0.04,0.11,0.01,0.14
		l0.38,0.33c0.05,0.04,0.13,0.04,0.18,0c0.12-0.11,0.35-0.27,0.61-0.27c0.35,0,0.56,0.18,0.56,0.39c0,0.15-0.08,0.3-0.16,0.41
		c-0.37,0.48-1.31,1.56-1.67,1.97v0.11c0,0.05,0.05,0.1,0.12,0.1h2.52c0.06,0,0.12-0.05,0.12-0.1v-0.48c0-0.05-0.06-0.1-0.12-0.1
		H34.2c0.3-0.35,0.81-0.93,1.02-1.23C35.37,161.36,35.46,161.2,35.46,160.92"/>
</g>
<path class="st0" d="M23.17,165.16l-1.2,2.64l-1.28-2.64l-3.81-7.87h1.38l3.67,7.6l2.95-6.4l0.05-0.11l-3.98-0.01l-0.54-1.11l6.34,0
	L23.17,165.16z M20.58,158.97l3.38,0.01l-2.04,4.5l-3.26-6.74l-0.02-0.04h-2.72l4.11,8.47l1.89,3.9l0.08,0.15l1.84-4.05l0.03-0.06
	l3.75-8.28l-0.36-0.17H27.2h-7.75L20.58,158.97z"/>
<g>
	<path class="st0" d="M28.85,166.45l-1.37,0.22l-0.03,0.25c-0.03,0.33-0.1,0.67-0.2,1l-0.07,0.24l1.18,0.73l-0.1,0.24l-1.35-0.33
		l-0.12,0.22c-0.16,0.3-0.35,0.58-0.57,0.85l-0.16,0.19l0.81,1.13l-0.18,0.18l-1.13-0.82l-0.19,0.16c-0.27,0.21-0.55,0.41-0.85,0.57
		l-0.22,0.12l0.32,1.36l-0.24,0.1l-0.73-1.19l-0.24,0.07c-0.33,0.1-0.66,0.16-1,0.2l-0.25,0.02l-0.23,1.38h-0.25l-0.22-1.38
		l-0.24-0.03c-0.34-0.04-0.67-0.1-1-0.2l-0.24-0.07l-0.73,1.18l-0.23-0.1l0.33-1.35l-0.22-0.12c-0.3-0.16-0.58-0.35-0.84-0.57
		l-0.19-0.15L17,171.35l-0.18-0.18l0.82-1.13l-0.16-0.19c-0.22-0.27-0.41-0.55-0.57-0.84l-0.12-0.22l-1.36,0.32l-0.1-0.24l1.19-0.73
		l-0.07-0.24c-0.1-0.33-0.16-0.66-0.2-1l-0.03-0.25l-1.38-0.22v-0.26l1.38-0.22l0.03-0.25c0.02-0.19,0.05-0.38,0.09-0.56
		c0.03-0.15,0.07-0.29,0.11-0.44l0.07-0.24l-1.19-0.73l0.1-0.24l1.35,0.33l0.12-0.22c0.08-0.14,0.16-0.28,0.25-0.42l0.07-0.09
		l0.7,1.45c-0.02,0.05-0.05,0.1-0.07,0.15c-0.06,0.14-0.11,0.29-0.15,0.44c-0.1,0.37-0.16,0.76-0.16,1.15
		c0,1.05,0.38,2.05,1.07,2.84c0.68,0.77,1.62,1.28,2.64,1.42c0.05,0.01,0.26,0.04,0.59,0.04h0.01c0.33,0,0.53-0.04,0.59-0.05
		c1.01-0.15,1.94-0.65,2.62-1.42c0.69-0.78,1.06-1.79,1.06-2.83c0-0.39-0.08-0.87-0.16-1.15c-0.08-0.27-0.18-0.46-0.2-0.49
		c0,0,0,0,0-0.01l0.72-1.5c0.1,0.15,0.2,0.3,0.28,0.46l0.12,0.22l1.35-0.32l0.1,0.24l-1.18,0.73l0.07,0.24
		c0.04,0.15,0.08,0.29,0.11,0.44c0.04,0.19,0.07,0.38,0.09,0.56l0.03,0.25l1.37,0.22V166.45z M28.02,165.16
		c-0.02-0.13-0.05-0.26-0.08-0.38l1.24-0.76l-0.52-1.25l-1.41,0.33c-0.1-0.17-0.21-0.33-0.33-0.49c-0.01-0.01-0.05-0.06-0.08-0.1
		l0.58-1.19l-0.59-0.37l-1.76,3.72l-0.09,0.22c0,0,0.12,0.1,0.23,0.24c0.13,0.18,0.19,0.37,0.19,0.37h0
		c0.02,0.07,0.05,0.14,0.05,0.18c0.04,0.21,0.06,0.42,0.06,0.64c0,0.89-0.32,1.74-0.91,2.4c-0.58,0.66-1.37,1.09-2.23,1.21
		l-0.03,0.01c0,0-0.16,0.04-0.46,0.04c-0.31,0-0.49-0.03-0.49-0.03l-0.02,0c-1.8-0.24-3.16-1.79-3.16-3.62
		c0-0.33,0.03-0.54,0.13-0.97c0.12-0.48,0.38-0.69,0.38-0.69l-1.76-3.72l-0.59,0.37l0.54,1.12c-0.13,0.18-0.34,0.49-0.44,0.66
		l-1.41-0.34l-0.52,1.25l1.24,0.77c-0.03,0.12-0.06,0.25-0.08,0.38c-0.01,0.08-0.03,0.16-0.04,0.25l-1.44,0.23l0,1.36l1.44,0.24
		c0.03,0.21,0.07,0.42,0.12,0.63l-1.24,0.76l0.52,1.25l1.42-0.33c0.11,0.18,0.23,0.36,0.36,0.53l-0.86,1.18l0.96,0.96l1.18-0.85
		c0.17,0.13,0.35,0.25,0.53,0.36l-0.34,1.42l1.25,0.52l0.77-1.24c0.21,0.05,0.42,0.09,0.63,0.12l0.23,1.44h1.35l0.24-1.44
		c0.21-0.03,0.42-0.07,0.63-0.12l0.76,1.24l1.25-0.52l-0.33-1.42c0.18-0.11,0.36-0.23,0.53-0.36l1.18,0.86l0.96-0.96l-0.85-1.18
		c0.13-0.17,0.25-0.35,0.36-0.53l1.41,0.34l0.52-1.25l-1.24-0.77c0.05-0.21,0.1-0.42,0.13-0.63L29.5,167v-1.35l-1.43-0.23
		C28.05,165.33,28.04,165.25,28.02,165.16"/>
	<path class="st0" d="M41.81,207.22c0-11.18-9.09-20.27-20.27-20.27s-20.27,9.09-20.27,20.27c0,11.18,9.09,20.27,20.27,20.27
		S41.81,218.4,41.81,207.22 M41.28,207.22c0,10.89-8.86,19.74-19.74,19.74c-10.89,0-19.74-8.86-19.74-19.74
		c0-10.89,8.86-19.74,19.74-19.74C32.42,187.48,41.28,196.34,41.28,207.22 M40.29,206.9l-1.07-0.53l1.01-0.63l-0.05-0.87l-1.72,1.16
		l-1.15,0.06l0.04,0.75l1.15-0.07l1.84,0.94L40.29,206.9z M39.38,204l0.62-0.15l-0.55-2.23l-0.62,0.15l0.19,0.75l-2.24,0.55
		l0.18,0.73l2.24-0.55L39.38,204z M36.28,201.55l2.72-1.11l-0.28-0.69L36,200.86L36.28,201.55z M37.39,198.67L38,198.4l-0.01-0.08
		c-0.05-0.21-0.13-0.42-0.26-0.64c-0.32-0.54-0.85-0.71-1.34-0.42c-0.5,0.3-0.43,0.78-0.38,1.12c0.05,0.27,0.06,0.44-0.06,0.51
		c-0.14,0.09-0.32-0.06-0.41-0.2c-0.09-0.16-0.15-0.35-0.15-0.56l-0.01-0.15l-0.67,0.31l0.05,0.15c0.07,0.23,0.11,0.36,0.25,0.61
		c0.24,0.41,0.56,0.63,0.9,0.63c0.16,0,0.31-0.05,0.47-0.14c0.52-0.31,0.44-0.8,0.38-1.15c-0.04-0.25-0.06-0.41,0.04-0.47
		c0.05-0.03,0.1-0.04,0.15-0.04c0.14,0,0.22,0.13,0.26,0.18c0.09,0.15,0.14,0.32,0.17,0.49L37.39,198.67z M35.65,196.14
		c0.63-0.56,0.13-1.13-0.24-1.56l-0.48-0.55l-2.21,1.94l0.49,0.56l0.85-0.75l0.05,0.06c0.11,0.12,0.11,0.18,0.02,0.35l-0.46,0.87
		l0.55,0.62l0.59-1.17c0.02-0.04,0.06-0.13,0.08-0.24C35.13,196.39,35.43,196.34,35.65,196.14 M35.19,195.45
		c0,0.05-0.03,0.1-0.09,0.15c-0.06,0.05-0.11,0.07-0.16,0.07c-0.12,0-0.26-0.13-0.36-0.24l-0.05-0.06l0.4-0.35l0.05,0.06
		C35.09,195.2,35.2,195.33,35.19,195.45 M33.4,193.48l0.39-0.5l-1.42-1.11l-1.81,2.32l1.42,1.11l0.39-0.5l-0.84-0.65l0.35-0.45
		l0.76,0.59l0.39-0.5l-0.76-0.59l0.29-0.37L33.4,193.48z M29.05,193.28l2.2-2.18l-0.67-0.34l-1.42,1.44l0.31-2l-0.71-0.36
		l-0.44,3.08L29.05,193.28z M26.69,192.25l0.88-2.81l-0.71-0.23l-0.88,2.81L26.69,192.25z M24.97,191.73l0.39-2.92l-0.71-0.1
		l-0.23,1.72l-0.64-1.84l-0.82-0.11l-0.39,2.92l0.72,0.1l0.23-1.72l0.64,1.84L24.97,191.73z M21.53,192.4
		c-8.17,0-14.82,6.65-14.82,14.82c0,8.18,6.65,14.82,14.82,14.82c8.17,0,14.82-6.65,14.82-14.82
		C36.35,199.05,29.71,192.4,21.53,192.4 M35.84,207.22c0,7.89-6.42,14.31-14.31,14.31c-7.89,0-14.31-6.42-14.31-14.31
		c0-7.89,6.42-14.31,14.31-14.31C29.42,192.91,35.84,199.34,35.84,207.22 M31.2,210.02l0-12.8l-19.18,0v12.58
		c0,2.92,1.64,5.75,4.75,8.2c2.31,1.82,4.58,2.78,4.68,2.82l0.17,0.07l0.18-0.07c0.1-0.04,2.36-1.02,4.66-2.82
		C29.56,215.58,31.2,212.82,31.2,210.02 M21.96,208.07c0.04-0.02,0.1-0.04,0.17-0.06c0,0,0.37-0.08,0.78-0.03
		c0.24,0.02,0.47,0.04,0.68,0.07c0.38,0.04,0.71,0.07,1.01,0.08c0.3,0.01,0.56,0.01,0.77,0.01h0.18l0,6.02c-0.17,0-0.4,0.01-0.66,0
		c-0.56-0.01-0.93-0.05-1.3-0.08c-0.37-0.04-0.71-0.07-1.21-0.07c-0.18,0-0.31,0.04-0.43,0.09V208.07z M12.92,205.53h8.26v1.81
		c-0.13-0.02-0.51-0.08-0.93-0.03c-0.25,0.02-0.47,0.05-0.69,0.07c-0.37,0.04-0.69,0.07-0.96,0.08c-0.35,0.01-0.62,0.01-0.85,0.01
		c-0.16,0-0.3,0-0.43,0l-0.33,0.01v1.75h-0.82v0.95h0.82v1.75h-0.82v0.95h0.82v1.95l0.32,0.02c0.02,0,0.46,0.03,1.04,0.01
		c0.58-0.01,0.99-0.05,1.34-0.08c0.37-0.03,0.69-0.06,1.12-0.06c0.17,0,0.23,0.05,0.32,0.17c0.01,0.02,0.03,0.03,0.04,0.05v4.78
		c-2-0.98-8.26-4.49-8.26-9.9V205.53z M20.84,214.02h-0.02c-0.47,0-0.82,0.03-1.19,0.06c-0.36,0.03-0.74,0.07-1.3,0.08
		c-0.25,0.01-0.48,0-0.66,0v-6.02h0.08c0.23,0,0.52,0,0.87-0.01c0.3-0.01,0.63-0.04,1.01-0.09c0.21-0.02,0.43-0.05,0.69-0.07
		c0.4-0.04,0.76,0.03,0.76,0.03c0.04,0.01,0.06,0.02,0.09,0.03v6.04C21.08,214.05,20.98,214.02,20.84,214.02 M30.29,204.62H12.93
		v-6.49l17.36,0V204.62z M30.29,210.02c0,5.24-6.44,8.79-8.33,9.72v-4.77c0.04-0.04,0.07-0.07,0.09-0.1
		c0.1-0.11,0.16-0.18,0.34-0.18c0.44,0.01,0.77,0.03,1.14,0.06c0.36,0.03,0.77,0.07,1.34,0.08c0.57,0.01,1.02-0.01,1.03-0.01
		l0.32-0.02v-1.78h0.75v-0.95h-0.75v-1.72h0.75v-0.95h-0.76v-1.94l-0.33-0.01c-0.12,0-0.26,0-0.43,0c-0.23,0-0.51,0-0.85-0.01
		c-0.27-0.01-0.59-0.04-0.96-0.08c-0.21-0.02-0.45-0.05-0.69-0.07c-0.51-0.06-0.97,0.03-1,0.04c-0.01,0-0.01,0-0.02,0.01v-1.83h8.33
		V210.02z M15.33,199.12c0,1.06,0,2.85,0,2.93c0.02,0.37,0.27,0.7,0.74,1.01c0.59,0.39,1.46,0.9,1.49,0.93l0.17,0.1l0.17-0.09
		c0.04-0.02,0.98-0.54,1.57-0.93c0.69-0.46,0.7-0.88,0.7-1.01c0.01-0.08,0-1.64,0-2.93v-0.34h-4.85V199.12z M19.5,200.34h-3.49
		c0-0.3,0-0.6,0-0.88h3.48C19.5,199.74,19.5,200.05,19.5,200.34 M16.01,201.02h3.49c0,0.53,0,0.94,0,1.01c0,0.17-0.22,0.35-0.4,0.47
		c-0.42,0.28-1.05,0.64-1.35,0.8c-0.28-0.17-0.87-0.52-1.29-0.81c-0.27-0.18-0.43-0.36-0.44-0.49
		C16.01,201.95,16.01,201.55,16.01,201.02 M23.47,198.97c0,1.33,0,2.93,0.01,3.01c0.03,0.37,0.27,0.71,0.76,1.03
		c0.6,0.4,1.49,0.92,1.53,0.95l0.17,0.1l0.17-0.09c0.04-0.02,1.01-0.55,1.61-0.95c0.7-0.47,0.72-0.9,0.72-1.04c0.01-0.07,0-1.68,0-3
		l0-0.34h-4.95V198.97z M24.15,201.76l1.72-1.24l1.88,1.25c0,0.1,0,0.17,0,0.2c0,0.17-0.23,0.36-0.41,0.49
		c-0.43,0.29-1.08,0.66-1.39,0.83c-0.29-0.17-0.9-0.54-1.33-0.83c-0.13-0.09-0.44-0.32-0.46-0.52
		C24.15,201.92,24.15,201.85,24.15,201.76 M24.15,199.32h3.59c0,0.53,0,1.14,0,1.64l-1.89-1.26l-1.7,1.23
		C24.15,200.43,24.15,199.84,24.15,199.32 M20.51,211.29l0.03-0.68c-0.07,0-0.15,0-0.24,0.01l-0.33,0.03
		c-0.2,0.02-0.37,0.04-0.52,0.04l-1,0.03l0.02,0.68l1-0.03c0.17,0,0.36-0.02,0.58-0.05l0.32-0.03
		C20.41,211.29,20.47,211.29,20.51,211.29 M20.52,209.41l0.01-0.68c-0.07,0-0.15,0-0.23,0.01c-0.12,0.01-0.23,0.02-0.34,0.04
		c-0.2,0.02-0.37,0.04-0.52,0.04l-1,0.03l0.02,0.68l1-0.03c0.16,0,0.36-0.02,0.58-0.05c0.1-0.01,0.21-0.02,0.33-0.03
		C20.42,209.41,20.47,209.41,20.52,209.41 M19.42,212.58c-0.32,0.01-0.82,0.02-0.97,0.03l0.01,0.68c0.15,0,0.65-0.02,1-0.03
		c0.17,0,0.36-0.03,0.58-0.05l0.33-0.03c0.05-0.01,0.1-0.01,0.15-0.01l0.01-0.68c-0.07,0-0.15,0-0.23,0.01l-0.34,0.03
		C19.77,212.56,19.6,212.58,19.42,212.58 M22.91,208.75c-0.09-0.01-0.17-0.01-0.25-0.01l0.03,0.68c0.05,0,0.1,0,0.16,0.01l0.32,0.03
		c0.22,0.02,0.41,0.04,0.58,0.05l1,0.03l0.01-0.68l-1-0.03c-0.15,0-0.32-0.02-0.52-0.04L22.91,208.75z M24.75,211.41l0.02-0.68
		l-0.26-0.01c-0.23,0-0.53-0.01-0.74-0.02c-0.14,0-0.31-0.02-0.49-0.04c-0.11-0.01-0.23-0.02-0.35-0.04
		c-0.09-0.01-0.17-0.01-0.25-0.01l0.01,0.68c0.05,0,0.1,0,0.17,0.01c0.12,0.01,0.24,0.02,0.35,0.03c0.21,0.02,0.39,0.04,0.55,0.05
		c0.21,0,0.51,0.01,0.74,0.02L24.75,211.41z M22.92,212.52c-0.09-0.01-0.17-0.01-0.25-0.01l0.02,0.68c0.05,0,0.1,0,0.16,0.01
		c0.12,0.01,0.24,0.02,0.34,0.03c0.21,0.02,0.4,0.04,0.56,0.05l0.28,0.01c0.29,0.01,0.61,0.01,0.72,0.02l0.01-0.68
		c-0.11,0-0.43-0.01-0.72-0.02l-0.28-0.01c-0.14-0.01-0.31-0.02-0.5-0.04C23.15,212.54,23.04,212.53,22.92,212.52 M21.21,191.15
		c0.18-0.21,0.25-0.5,0.22-0.85l-0.15-1.85l-0.74,0.06l0.14,1.68c0.05,0.59-0.19,0.69-0.4,0.71c-0.02,0-0.04,0-0.05,0
		c-0.17,0-0.41-0.07-0.46-0.64l-0.14-1.68l-0.74,0.06l0.15,1.85c0.06,0.68,0.44,1.04,1.11,1.04c0.06,0,0.12,0,0.18-0.01
		C20.73,191.5,21.03,191.37,21.21,191.15 M15.49,192.64l1.69-0.61l-0.22-0.6l-0.98,0.36l-0.78-2.17l-0.7,0.26L15.49,192.64z
		 M14.71,192.97l-0.31-0.55l-0.91,0.51l-1.13-2.01l-0.65,0.37l1.44,2.56L14.71,192.97z M10.69,194.17l0.75-0.61l-0.4-0.49
		l-0.75,0.61l-0.3-0.36l0.82-0.66l-0.4-0.49l-1.39,1.13l1.86,2.28l1.4-1.14l-0.4-0.49l-0.82,0.67L10.69,194.17z M10.09,196.3
		l-2.26-1.88l-0.46,0.56l1.33,1.11l-1.89-0.44l-0.53,0.64l2.27,1.88L9,197.61l-1.33-1.11l1.89,0.43L10.09,196.3z M6.14,198.02
		c-0.15-0.08-0.29-0.12-0.42-0.12c-0.48,0-0.73,0.48-0.95,0.9l-0.34,0.64l2.6,1.38l0.35-0.66l-1-0.54l0.03-0.06
		c0.09-0.18,0.17-0.16,0.32-0.15l0.98,0.12l0.39-0.73l-1.3-0.14c-0.09-0.01-0.18,0-0.25,0.01C6.55,198.42,6.41,198.16,6.14,198.02
		 M5.96,198.86c0.04,0.12-0.04,0.29-0.11,0.41l-0.04,0.07l-0.47-0.25l0.03-0.07c0.12-0.22,0.25-0.4,0.45-0.3
		C5.9,198.76,5.94,198.81,5.96,198.86 M4.7,201.17c-0.65,0-1.13,0.38-1.32,1.03c-0.24,0.85,0.17,1.53,1.06,1.79
		c0.19,0.05,0.37,0.08,0.54,0.08c0.65,0,1.12-0.38,1.31-1.03c0.11-0.39,0.08-0.76-0.09-1.07c-0.19-0.34-0.53-0.58-0.99-0.71
		C5.04,201.2,4.87,201.17,4.7,201.17 M4.65,201.93c0.11,0,0.24,0.02,0.36,0.05c0.3,0.09,0.53,0.24,0.63,0.43
		c0.07,0.13,0.09,0.28,0.04,0.44c-0.11,0.37-0.41,0.45-0.65,0.45c-0.12,0-0.25-0.02-0.39-0.06c-0.39-0.11-0.79-0.4-0.66-0.87
		C4.1,202.01,4.41,201.93,4.65,201.93 M3.63,205.04l-0.69-0.1l-0.03,0.07c-0.09,0.19-0.15,0.43-0.16,0.64
		c-0.06,0.99,0.49,1.62,1.46,1.68c0.04,0,0.09,0,0.13,0c0.85,0,1.37-0.54,1.44-1.49c0.01-0.19,0-0.39-0.05-0.65l-0.02-0.08L5,205.11
		l0.07,0.15c0.05,0.11,0.08,0.35,0.07,0.55c-0.03,0.49-0.4,0.79-0.92,0.76c-0.53-0.03-0.87-0.38-0.84-0.86
		c0.01-0.16,0.04-0.33,0.17-0.52L3.63,205.04z M6.11,210.73l-2.83,0.82l0.21,0.72l1.15-0.33l0.26,0.89l0.61-0.18l-0.26-0.89
		l0.45-0.13l0.27,0.93l0.61-0.18L6.11,210.73z M4.59,214.41c-0.12,0.34-0.08,0.71,0.11,1.09c0.26,0.53,0.69,0.82,1.22,0.82
		c0.25,0,0.52-0.07,0.78-0.2c0.42-0.21,0.7-0.5,0.83-0.87c0.11-0.34,0.08-0.72-0.11-1.09c-0.26-0.53-0.69-0.82-1.21-0.82
		c-0.25,0-0.51,0.07-0.78,0.2C5,213.75,4.71,214.05,4.59,214.41 M5.23,214.77c0.07-0.2,0.27-0.4,0.55-0.53
		c0.17-0.09,0.35-0.13,0.51-0.13c0.26,0,0.45,0.11,0.56,0.34c0.08,0.15,0.09,0.31,0.04,0.46c-0.07,0.2-0.26,0.4-0.53,0.53
		c-0.19,0.09-0.37,0.14-0.54,0.14c-0.25,0-0.44-0.12-0.55-0.35C5.19,215.07,5.18,214.91,5.23,214.77 M7.06,217.37
		c-0.3,0.24-0.46,0.51-0.47,0.8c-0.01,0.27,0.1,0.56,0.34,0.86c0.29,0.36,0.59,0.54,0.91,0.54c0.24,0,0.48-0.1,0.73-0.29l1.45-1.15
		l-0.47-0.59l-1.32,1.05c-0.35,0.28-0.61,0.31-0.81,0.05c-0.08-0.11-0.12-0.21-0.11-0.31c0.02-0.15,0.13-0.3,0.34-0.47l1.32-1.05
		l-0.47-0.59L7.06,217.37z M10.72,218.84l-1.86,2.28l0.56,0.46l1.1-1.34l-0.41,1.91l0.64,0.53l1.87-2.28l-0.56-0.46l-1.1,1.34
		l0.42-1.9L10.72,218.84z M13.47,220.94l-1.32,2.63l0.76,0.38c0.36,0.19,0.68,0.27,0.97,0.27c0.51,0,0.91-0.28,1.19-0.83
		c0.44-0.87,0.16-1.57-0.84-2.07L13.47,220.94z M13.1,223.34l0.75-1.5l0.18,0.09c0.19,0.1,0.33,0.26,0.4,0.46
		c0.07,0.21,0.04,0.43-0.06,0.64c-0.15,0.31-0.42,0.48-0.72,0.48c-0.13,0-0.25-0.03-0.36-0.09L13.1,223.34z M16.61,222.36
		l-0.76,2.84l1.76,0.47l0.16-0.61l-1.04-0.28l0.15-0.54l0.94,0.25l0.17-0.61l-0.94-0.25l0.12-0.46l1.03,0.27l0.17-0.61L16.61,222.36
		z M19.34,223l-0.16,2.94l0.84,0.05c0.07,0,0.13,0,0.19,0c0.99,0,1.51-0.46,1.57-1.38c0.02-0.45-0.08-0.81-0.31-1.07
		c-0.27-0.3-0.68-0.46-1.28-0.49L19.34,223z M19.96,225.35l0.1-1.67l0.2,0.01c0.4,0.02,0.78,0.33,0.75,0.88
		c-0.03,0.57-0.46,0.81-0.85,0.79L19.96,225.35z M24.37,222.83l-0.5,3.11l0.77-0.17l0.1-0.66l0.95-0.21l0.36,0.57l0.81-0.18
		l-1.74-2.63L24.37,222.83z M24.83,224.45l0.09-0.77l0.4,0.66L24.83,224.45z M27.87,224.09l-0.7,0.26l0.25,0.71l0.71-0.26
		L27.87,224.09z M27.85,221.78l1.4,2.59l0.74-0.41c0.98-0.53,1.24-1.23,0.77-2.09c-0.46-0.85-1.2-1.03-2.17-0.49L27.85,221.78z
		 M28.81,221.98l0.18-0.1c0.12-0.07,0.25-0.1,0.39-0.1c0.3,0,0.56,0.17,0.71,0.45c0.26,0.48,0.04,0.93-0.3,1.12l-0.18,0.1
		L28.81,221.98z M31.95,221.87l-0.62,0.43l0.43,0.62l0.62-0.43L31.95,221.87z M32.38,219.69l0.64,0.09l0.05-0.48l1.4,1.42l0.53-0.53
		l-2.07-2.1l-0.44,0.44L32.38,219.69z M34.94,217.96c-0.02,0.32,0.09,0.56,0.31,0.73c0.16,0.12,0.34,0.18,0.51,0.18
		c0.29,0,0.59-0.18,0.83-0.51c0.2-0.28,0.29-0.56,0.26-0.81c-0.03-0.22-0.15-0.4-0.36-0.56c-0.25-0.18-0.52-0.21-0.83-0.09
		c0-0.29-0.15-0.54-0.32-0.67c-0.37-0.27-0.86-0.12-1.22,0.37c-0.35,0.48-0.32,0.97,0.09,1.27
		C34.42,218.02,34.68,218.06,34.94,217.96 M35.57,217.68c0.21-0.14,0.37-0.16,0.5-0.06c0.06,0.05,0.1,0.1,0.11,0.17
		c0.01,0.07-0.01,0.15-0.07,0.22c-0.1,0.13-0.29,0.17-0.41,0.08C35.57,218,35.53,217.88,35.57,217.68 M35.09,217.21
		c-0.1,0.07-0.21,0.12-0.31,0.12c-0.05,0-0.09-0.01-0.12-0.04c-0.15-0.11-0.07-0.29-0.01-0.37c0.05-0.07,0.11-0.1,0.18-0.1
		c0.05,0,0.1,0.02,0.16,0.06C35.08,216.94,35.11,217.1,35.09,217.21 M36.66,215.81c0.33,0.17,0.61,0.25,0.85,0.25
		c0.37,0,0.65-0.19,0.84-0.55c0.29-0.57,0.09-1.08-0.52-1.39c-0.51-0.25-0.99-0.1-1.24,0.39c-0.07,0.14-0.1,0.27-0.08,0.4
		c-0.18-0.15-0.35-0.38-0.2-0.67c0.07-0.15,0.17-0.25,0.28-0.35l0.1-0.09l-0.54-0.39l-0.06,0.06c-0.15,0.15-0.27,0.31-0.36,0.5
		c-0.14,0.29-0.17,0.58-0.08,0.85C35.8,215.3,36.28,215.63,36.66,215.81 M37.06,215.06c-0.02-0.05-0.01-0.11,0.02-0.17
		c0.04-0.09,0.12-0.13,0.22-0.13c0.08,0,0.17,0.02,0.27,0.07c0.12,0.06,0.22,0.15,0.25,0.24c0.02,0.05,0.01,0.11-0.01,0.16
		c-0.05,0.1-0.12,0.14-0.23,0.14c-0.07,0-0.15-0.02-0.24-0.07C37.19,215.24,37.09,215.15,37.06,215.06 M38.62,212.9l-0.09,0.12
		l0.69,0.23l0.04-0.07c0.11-0.2,0.21-0.43,0.26-0.61c0.1-0.35,0.09-0.66-0.04-0.92c-0.12-0.24-0.34-0.41-0.62-0.5
		c-0.59-0.18-1.06,0.09-1.23,0.65c-0.02,0.05-0.03,0.1-0.04,0.14l-0.34-0.11l0.3-1.01l-0.59-0.17l-0.5,1.7l1.63,0.52v-0.14
		c0-0.16,0.02-0.31,0.06-0.46c0.04-0.14,0.19-0.49,0.51-0.4c0.33,0.1,0.26,0.46,0.23,0.57C38.84,212.64,38.72,212.79,38.62,212.9"/>
</g>
<g>
	<path class="st0" d="M18.15,91.58c0,1.86-0.67,3.38-1.86,4.57c-1.72,1.72-3.84,1.67-6.76,1.67c-2.93,0-5.05,0.05-6.76-1.67
		c-1.19-1.19-1.86-2.71-1.86-4.57c0-3.17,1.81-5.64,5.36-6.24v3.36c-1.36,0.33-2.4,1.19-2.4,2.86c0,0.9,0.33,1.64,0.88,2.12
		c0.71,0.64,1.52,0.83,4.79,0.83c3.26,0,4.07-0.19,4.79-0.83c0.55-0.48,0.88-1.22,0.88-2.12c0-1.67-1.05-2.52-2.41-2.86v-3.36
		C16.34,85.93,18.15,88.43,18.15,91.58"/>
	<path class="st0" d="M4.63,75.3c-0.55,0.48-0.91,1.22-0.91,2.13c0,0.91,0.36,1.67,0.91,2.15c0.72,0.65,1.51,0.81,4.78,0.81
		c3.27,0,4.06-0.17,4.78-0.81c0.55-0.48,0.91-1.24,0.91-2.15c0-0.91-0.36-1.65-0.91-2.13c-0.72-0.65-1.51-0.84-4.78-0.84
		C6.13,74.46,5.34,74.66,4.63,75.3 M16.2,72.84c1.2,1.19,1.86,2.65,1.86,4.59c0,1.94-0.67,3.42-1.86,4.61
		c-1.72,1.72-3.85,1.67-6.79,1.67c-2.94,0-5.07,0.05-6.79-1.67c-1.19-1.2-1.86-2.68-1.86-4.61c0-1.94,0.67-3.39,1.86-4.59
		c1.72-1.72,3.85-1.7,6.79-1.7C12.35,71.14,14.48,71.12,16.2,72.84"/>
	<path class="st0" d="M3.86,62.39v3.13h4.49v-3.13c0-1.46-0.93-2.41-2.25-2.41C4.79,59.98,3.86,60.93,3.86,62.39 M17.92,59.81
		l-6.79,3.32v2.39h6.79v3.32H0.9v-6.67c0-3.47,2.37-5.52,5.21-5.52c2.39,0,3.87,1.46,4.47,3.11l7.34-3.8V59.81z"/>
	<polygon class="st0" points="0.9,40.83 0.9,44.16 11.32,44.16 0.9,50.9 0.9,53.86 17.92,53.86 17.92,50.54 7.47,50.54 17.92,43.8 
		17.92,40.83 	"/>
	<polygon class="st0" points="14.95,26.63 14.95,34.52 10.82,34.52 10.82,27.8 7.85,27.8 7.85,34.52 3.86,34.52 3.86,26.63 
		0.9,26.63 0.9,37.84 17.92,37.84 17.92,26.63 	"/>
	<polygon class="st0" points="14.95,12.95 14.95,20.67 0.9,20.67 0.9,23.99 17.92,23.99 17.92,12.95 	"/>
	<polygon class="st0" points="14.95,0 14.95,7.72 0.9,7.72 0.9,11.04 17.92,11.04 17.92,0 	"/>
	<polygon class="st0" points="24.3,85.47 24.3,97.69 27.26,97.69 27.26,93.24 41.32,93.24 41.32,89.92 27.26,89.92 27.26,85.47 	"/>
	<polygon class="st0" points="38.35,72.07 38.35,79.95 34.22,79.95 34.22,73.24 31.25,73.24 31.25,79.95 27.26,79.95 27.26,72.07 
		24.3,72.07 24.3,83.28 41.32,83.28 41.32,72.07 	"/>
	<g>
		<path class="st0" d="M41.46,63.92c0,1.87-0.67,3.39-1.86,4.59c-1.72,1.72-3.85,1.67-6.79,1.67c-2.94,0-5.07,0.05-6.79-1.67
			c-1.2-1.19-1.87-2.72-1.87-4.59c0-3.18,1.82-5.67,5.38-6.26v3.37c-1.36,0.33-2.41,1.19-2.41,2.87c0,0.91,0.33,1.65,0.89,2.13
			c0.72,0.65,1.53,0.84,4.81,0.84c3.27,0,4.09-0.19,4.8-0.84c0.55-0.48,0.89-1.22,0.89-2.13c0-1.67-1.05-2.53-2.41-2.87v-3.37
			C39.64,58.26,41.46,60.77,41.46,63.92"/>
	</g>
	<polygon class="st0" points="24.3,42.96 24.3,46.28 31.25,46.28 31.25,52.04 24.3,52.04 24.3,55.37 41.32,55.37 41.32,52.04 
		34.19,52.04 34.19,46.28 41.32,46.28 41.32,42.96 	"/>
</g>
</svg>
